<svg xmlns="http://www.w3.org/2000/svg" xml:space="preserve" width="64" height="64" style="enable-background:new 0 0 64 64"><path d="M52.6 13.5C50.2 7.3 44.1 2.9 37.1 2.9c-6.2 0-11.5 3.4-14.5 8.3-.8 1.4-2.3 2.3-4 2.3l-3.8 14.2c0 4.4 1.5 8.4 4 11.6-.3 4.7-1 9.2-2.1 13.6-.1.4-.5.7-.9.7s-.8.1-1.1.1c-1 .2-1.8 1.1-1.8 2.2s.9 2.1 2.1 2.2c.7.1 1.3.1 2 .1 1.9 0 3.6-1.3 4.2-3.1 2.3-6.2 3.8-12.9 4.4-19.8 0 0 7.3-1.7 11.8-6.5 2.4 2.5 3.9 5.8 4.1 9.5.2 3 .6 11.4.7 15.3 0 .4-.3.8-.7 1-.7.2-1.4.5-2.1.8-.7.3-1.1.9-1.2 1.7-.1 1.1.7 2 1.7 2.1 2.3.3 4.7.1 6.9-.4l5.8-45.3z" style="fill:#37474f"/><path d="M61.7 31.8c-.4-.3-1-.9-.9-1.5.1-1.3.3-2.5.4-3.8.3-2.6.6-5.3.6-8.1 0-3.5-2.5-6.6-5.9-7.1-1.3-.2-2.5 0-3.6.4-1 .4-2.1 0-2.7-.8-3.2-3.7-8.1-6.1-13.4-6.1-5.5 0-10.6 2.3-13.6 6.4-.9 1.3-2.3 2.3-4 2.3l-3.3 15c.9 5.2 4.1 9.5 8.6 11.9-.2 4.9-.6 9.7-1.4 14.4-.1.5-.5.8-1 .8-.6 0-1.3.1-1.9.2-1.1.2-1.9 1.1-2 2.2-.1 1.2.6 2.3 1.8 2.6 1.4.4 2.9.4 4.3.2.9-.2 1.6-.8 2-1.6 3.1-6.9 5.2-14.3 6.1-22.1 2.9-1.4 5.5-3.6 7.4-6.2 2.4.9 4.2 3.1 4.5 5.9.7 5.9 1.2 11.9 1.5 17.9 0 .4-.2.7-.5.9-.7.4-1.4.9-1.9 1.5-.3.3-.5.7-.6 1.1v.1c-.6 1.5.5 2.7 1.8 2.7h3.6c1.4-.1 2.5-1.1 2.7-2.5.8-5.8 1.3-11.7 1.5-17.6.1-2.4.3-4.8.7-7.2.6-3.7 1.1-7.4 1.2-11.2v-.3c.9-2.6 2-5.4 2.3-4.7.7 1.5.5 6 .2 8.5-.2 1.3-.3 2.6-.4 3.9-.2 2.3 1 4.6 3.1 6 .4.3.9.4 1.4.4.8 0 1.6-.4 2.1-1.1.8-1.1.4-2.7-.7-3.4z" style="fill:#212121"/><path d="M4 21.4c-1.4-2.6-2.2-5.5-2.2-8.7 0 0 1.5 2.9 4 4.4-.1-.1-1.4 1-1.8 4.3z" style="fill:#546e7a"/><path d="M12.7 14.2C11.1 15.6 9 15.9 7 15.3c-3.1-1-4.7-3.3-4.8-5.8-.1-.5-.7-.5-.8-.1-.4 1.6-.3 3.4.4 5 1.7 3.7 5.9 5.4 9.7 3.9 3.6-1.4 2.8-5.5 1.2-4.1z" style="fill:#37474f"/><path d="M26.9 16.8c0-3.5 1-6.8 2.7-9.6l-8.8 5.1 6.1 4.5z" style="fill:#757575"/><path d="M29.8 6.6c-3.3 1.8-6.9 3.2-10.7 4-1.3-.5-2.7-.8-4.2-.8-6 0-10.9 4.6-11.4 10.5-.5.8-.8 1.8-.8 2.8 0 2.6 2 4.8 4.5 5.2 1.6 1 3.1 2.1 4.4 3.3.8.7 1.9 1.2 3 1.2h.3c.6 0 1.3-.1 1.9-.2.3-.1.6-.2.8-.5.8-1.1 1.4-2.3 1.9-3.6.2-.6.8-.9 1.4-.9 3.2.3 6.3-1.7 7.3-5 .9-3.1-.5-6.1-3-7.9-.9-.6-2.3-1.9-3.3-2.7 3.1-1.1 6-2.9 8.4-5.1 0-.1-.2-.5-.5-.3z" style="fill:#263238"/><path d="M8.8 25.6c1.4 1.1 2.6 2.4 3.5 4 .2.4.6.6 1 .5.7-.1 1.3-.3 1.9-.6.6-.2 1.1-.8 1.3-1.5.4-1.5.9-3 1.6-4.4.3-.6-.4-1.2-1-.9-2 1.1-4.2 1.6-6.5 1.5-.7.5-1.3.9-1.8 1.4z" style="fill:#f44336"/><path d="M13.6 24.1c.2.7.3 1.5.2 2.1 0 .3-.2.5-.2.5-.1-.9-.6-1.7-.9-2.5.3 0 .6-.1.9-.1zM10.1 27c.1.1.5.4.5.4-.3-.8-.4-1.8-.6-2.7-.3.2-.6.4-.8.6.2.6.5 1.2.9 1.7z" style="fill:#fff"/><path d="M10.7 23.8c0-.3.1-.7.2-1 .3-.7.1-.8-.3-.9-.8-.2-.7.6-1.4.4h-.4c-.4.2-.4.5.1.9.4.3.7.6.9.9.3.7.9.1.9-.3z" style="fill:#757575"/><path d="M8.9 20.7c-.5-1-1-1.7-2.1-1.7-.4 0-.8 0-1.2.2-.4.1-.7.5-.7 1l-.1.7c0 .2.2.4.4.3 1.2-.4 2.4-.5 3.7-.5z" style="fill:#ffee58"/><path d="M17.1 16.8c-.5-.4-1.9-.9-3.3-.2-.5.3-.9.7-1.2 1.2-.3.6-.4 1.2-.5 1.8 1.9-.2 3.7-1.2 5-2.8z" style="fill:#00e5ff"/></svg>